<svg width="178" height="19" viewBox="0 0 178 19" fill="none" xmlns="http://www.w3.org/2000/svg">
<path d="M169.021 19L178 10.1338L169.021 1.26769L169.021 19Z" fill="#E02126"/>
<path d="M16.6648 12.084H10.3648L9.12278 15H6.71078L12.3808 2.4H14.6848L20.3728 15H17.9248L16.6648 12.084ZM15.8908 10.248L13.5148 4.74L11.1568 10.248H15.8908ZM27.6314 15.18C26.3594 15.18 25.2074 14.904 24.1754 14.352C23.1554 13.788 22.3514 13.014 21.7634 12.03C21.1874 11.046 20.8994 9.936 20.8994 8.7C20.8994 7.464 21.1934 6.354 21.7814 5.37C22.3694 4.386 23.1734 3.618 24.1934 3.066C25.2254 2.502 26.3774 2.22 27.6494 2.22C28.6814 2.22 29.6234 2.4 30.4754 2.76C31.3274 3.12 32.0474 3.642 32.6354 4.326L31.1234 5.748C30.2114 4.764 29.0894 4.272 27.7574 4.272C26.8934 4.272 26.1194 4.464 25.4354 4.848C24.7514 5.22 24.2174 5.742 23.8334 6.414C23.4494 7.086 23.2574 7.848 23.2574 8.7C23.2574 9.552 23.4494 10.314 23.8334 10.986C24.2174 11.658 24.7514 12.186 25.4354 12.57C26.1194 12.942 26.8934 13.128 27.7574 13.128C29.0894 13.128 30.2114 12.63 31.1234 11.634L32.6354 13.074C32.0474 13.758 31.3214 14.28 30.4574 14.64C29.6054 15 28.6634 15.18 27.6314 15.18ZM44.3275 13.038V15H34.8775V2.4H44.0755V4.362H37.2175V7.638H43.3015V9.564H37.2175V13.038H44.3275ZM50.8421 15.18C49.8701 15.18 48.9281 15.042 48.0161 14.766C47.1161 14.49 46.4021 14.124 45.8741 13.668L46.6841 11.85C47.2001 12.258 47.8301 12.594 48.5741 12.858C49.3301 13.11 50.0861 13.236 50.8421 13.236C51.7781 13.236 52.4741 13.086 52.9301 12.786C53.3981 12.486 53.6321 12.09 53.6321 11.598C53.6321 11.238 53.5001 10.944 53.2361 10.716C52.9841 10.476 52.6601 10.29 52.2641 10.158C51.8681 10.026 51.3281 9.876 50.6441 9.708C49.6841 9.48 48.9041 9.252 48.3041 9.024C47.7161 8.796 47.2061 8.442 46.7741 7.962C46.3541 7.47 46.1441 6.81 46.1441 5.982C46.1441 5.286 46.3301 4.656 46.7021 4.092C47.0861 3.516 47.6561 3.06 48.4121 2.724C49.1801 2.388 50.1161 2.22 51.2201 2.22C51.9881 2.22 52.7441 2.316 53.4881 2.508C54.2321 2.7 54.8741 2.976 55.4141 3.336L54.6761 5.154C54.1241 4.83 53.5481 4.584 52.9481 4.416C52.3481 4.248 51.7661 4.164 51.2021 4.164C50.2781 4.164 49.5881 4.32 49.1321 4.632C48.6881 4.944 48.4661 5.358 48.4661 5.874C48.4661 6.234 48.5921 6.528 48.8441 6.756C49.1081 6.984 49.4381 7.164 49.8341 7.296C50.2301 7.428 50.7701 7.578 51.4541 7.746C52.3901 7.962 53.1581 8.19 53.7581 8.43C54.3581 8.658 54.8681 9.012 55.2881 9.492C55.7201 9.972 55.9361 10.62 55.9361 11.436C55.9361 12.132 55.7441 12.762 55.3601 13.326C54.9881 13.89 54.4181 14.34 53.6501 14.676C52.8821 15.012 51.9461 15.18 50.8421 15.18ZM62.1625 15.18C61.1905 15.18 60.2485 15.042 59.3365 14.766C58.4365 14.49 57.7225 14.124 57.1945 13.668L58.0045 11.85C58.5205 12.258 59.1505 12.594 59.8945 12.858C60.6505 13.11 61.4065 13.236 62.1625 13.236C63.0985 13.236 63.7945 13.086 64.2505 12.786C64.7185 12.486 64.9525 12.09 64.9525 11.598C64.9525 11.238 64.8205 10.944 64.5565 10.716C64.3045 10.476 63.9805 10.29 63.5845 10.158C63.1885 10.026 62.6485 9.876 61.9645 9.708C61.0045 9.48 60.2245 9.252 59.6245 9.024C59.0365 8.796 58.5265 8.442 58.0945 7.962C57.6745 7.47 57.4645 6.81 57.4645 5.982C57.4645 5.286 57.6505 4.656 58.0225 4.092C58.4065 3.516 58.9765 3.06 59.7325 2.724C60.5005 2.388 61.4365 2.22 62.5405 2.22C63.3085 2.22 64.0645 2.316 64.8085 2.508C65.5525 2.7 66.1945 2.976 66.7345 3.336L65.9965 5.154C65.4445 4.83 64.8685 4.584 64.2685 4.416C63.6685 4.248 63.0865 4.164 62.5225 4.164C61.5985 4.164 60.9085 4.32 60.4525 4.632C60.0085 4.944 59.7865 5.358 59.7865 5.874C59.7865 6.234 59.9125 6.528 60.1645 6.756C60.4285 6.984 60.7585 7.164 61.1545 7.296C61.5505 7.428 62.0905 7.578 62.7745 7.746C63.7105 7.962 64.4785 8.19 65.0785 8.43C65.6785 8.658 66.1885 9.012 66.6085 9.492C67.0405 9.972 67.2565 10.62 67.2565 11.436C67.2565 12.132 67.0645 12.762 66.6805 13.326C66.3085 13.89 65.7385 14.34 64.9705 14.676C64.2025 15.012 63.2665 15.18 62.1625 15.18ZM79.0268 13.038V15H69.5768V2.4H78.7748V4.362H71.9168V7.638H78.0008V9.564H71.9168V13.038H79.0268ZM92.496 15.18C91.212 15.18 90.054 14.904 89.022 14.352C87.99 13.788 87.18 13.014 86.592 12.03C86.004 11.034 85.71 9.924 85.71 8.7C85.71 7.476 86.004 6.372 86.592 5.388C87.18 4.392 87.99 3.618 89.022 3.066C90.054 2.502 91.212 2.22 92.496 2.22C93.78 2.22 94.938 2.502 95.97 3.066C97.002 3.618 97.812 4.386 98.4 5.37C98.988 6.354 99.282 7.464 99.282 8.7C99.282 9.936 98.988 11.046 98.4 12.03C97.812 13.014 97.002 13.788 95.97 14.352C94.938 14.904 93.78 15.18 92.496 15.18ZM92.496 13.128C93.336 13.128 94.092 12.942 94.764 12.57C95.436 12.186 95.964 11.658 96.348 10.986C96.732 10.302 96.924 9.54 96.924 8.7C96.924 7.86 96.732 7.104 96.348 6.432C95.964 5.748 95.436 5.22 94.764 4.848C94.092 4.464 93.336 4.272 92.496 4.272C91.656 4.272 90.9 4.464 90.228 4.848C89.556 5.22 89.028 5.748 88.644 6.432C88.26 7.104 88.068 7.86 88.068 8.7C88.068 9.54 88.26 10.302 88.644 10.986C89.028 11.658 89.556 12.186 90.228 12.57C90.9 12.942 91.656 13.128 92.496 13.128ZM110.643 15.18C109.671 15.18 108.729 15.042 107.817 14.766C106.917 14.49 106.203 14.124 105.675 13.668L106.485 11.85C107.001 12.258 107.631 12.594 108.375 12.858C109.131 13.11 109.887 13.236 110.643 13.236C111.579 13.236 112.275 13.086 112.731 12.786C113.199 12.486 113.433 12.09 113.433 11.598C113.433 11.238 113.301 10.944 113.037 10.716C112.785 10.476 112.461 10.29 112.065 10.158C111.669 10.026 111.129 9.876 110.445 9.708C109.485 9.48 108.705 9.252 108.105 9.024C107.517 8.796 107.007 8.442 106.575 7.962C106.155 7.47 105.945 6.81 105.945 5.982C105.945 5.286 106.131 4.656 106.503 4.092C106.887 3.516 107.457 3.06 108.213 2.724C108.981 2.388 109.917 2.22 111.021 2.22C111.789 2.22 112.545 2.316 113.289 2.508C114.033 2.7 114.675 2.976 115.215 3.336L114.477 5.154C113.925 4.83 113.349 4.584 112.749 4.416C112.149 4.248 111.567 4.164 111.003 4.164C110.079 4.164 109.389 4.32 108.933 4.632C108.489 4.944 108.267 5.358 108.267 5.874C108.267 6.234 108.393 6.528 108.645 6.756C108.909 6.984 109.239 7.164 109.635 7.296C110.031 7.428 110.571 7.578 111.255 7.746C112.191 7.962 112.959 8.19 113.559 8.43C114.159 8.658 114.669 9.012 115.089 9.492C115.521 9.972 115.737 10.62 115.737 11.436C115.737 12.132 115.545 12.762 115.161 13.326C114.789 13.89 114.219 14.34 113.451 14.676C112.683 15.012 111.747 15.18 110.643 15.18ZM118.057 2.4H120.397V15H118.057V2.4ZM126.361 4.38H122.185V2.4H132.877V4.38H128.701V15H126.361V4.38ZM144.083 13.038V15H134.633V2.4H143.831V4.362H136.973V7.638H143.057V9.564H136.973V13.038H144.083Z" fill="#F9F9F9"/>
</svg>
